<?xml version="1.0" encoding="utf-8"?>
<!-- Generator: Adobe Illustrator 21.0.2, SVG Export Plug-In . SVG Version: 6.00 Build 0)  -->
<svg version="1.1" id="Слой_1" xmlns="http://www.w3.org/2000/svg" xmlns:xlink="http://www.w3.org/1999/xlink" x="0px" y="0px"
	 viewBox="0 0 88 91.8" style="enable-background:new 0 0 88 91.8;" xml:space="preserve">
<g>
	<path d="M86.1,80.8l-29-54V10.1c2.4-0.2,4.2-2.1,4.2-4.5c0-2.5-2-4.5-4.5-4.5H31.2c-2.5,0-4.5,2-4.5,4.5c0,2.4,1.9,4.4,4.2,4.5
		v16.7L2,80.7l-0.1,0.1c-0.9,2.1-0.7,4.6,0.5,6.5s3.4,3.1,5.8,3.1h71.5c2.3,0,4.5-1.2,5.8-3.1C86.8,85.4,87,82.9,86.1,80.8z
		 M29.9,5.5c0-0.8,0.6-1.4,1.4-1.4h25.5c0.8,0,1.4,0.6,1.4,1.4c0,0.8-0.6,1.4-1.4,1.4H31.2C30.5,6.9,29.9,6.3,29.9,5.5z M82.9,85.6
		c-0.7,1.1-1.8,1.7-3.1,1.7H8.3c-1.3,0-2.4-0.6-3.1-1.7c-0.7-1-0.8-2.3-0.3-3.5l29.3-54.6V10.1h19.8v17.5l29.3,54.6
		C83.6,83.3,83.5,84.5,82.9,85.6z"/>
	<path d="M65.2,58.9C59.8,52,52,56.1,46.9,56.1c-5,0-7.1-3.8-13.7-3.8s-10.4,6.6-10.4,6.6L12.7,77.8c-0.6,1.3-0.4,2.7,0.3,3.9
		c0.8,1.2,2,1.9,3.4,1.9H44h27.6c1.4,0,2.7-0.7,3.4-1.9c0.8-1.2,0.9-2.6,0.3-3.9L65.2,58.9z M27.8,75.7c-1.4,0-2.5-1.1-2.5-2.5
		c0-1.4,1.1-2.5,2.5-2.5c1.4,0,2.5,1.1,2.5,2.5C30.3,74.6,29.2,75.7,27.8,75.7z M48.1,73.7c-2.3,0-4.1-1.9-4.1-4.1
		c0-2.3,1.9-4.1,4.1-4.1c2.3,0,4.1,1.9,4.1,4.1C52.3,71.8,50.4,73.7,48.1,73.7z"/>
	<path d="M37.9,49.6c2.3,0,4.1-1.8,4.1-4.1c0-2.3-1.8-4.1-4.1-4.1c-2.3,0-4.1,1.8-4.1,4.1C33.8,47.8,35.6,49.6,37.9,49.6z
		 M37.9,43.5c1.1,0,2,0.9,2,2s-0.9,2-2,2c-1.1,0-2-0.9-2-2S36.8,43.5,37.9,43.5z"/>
	<path d="M47.6,40.3c2.6,0,4.7-2.1,4.7-4.7c0-2.6-2.1-4.7-4.7-4.7c-2.6,0-4.7,2.1-4.7,4.7C42.9,38.2,45,40.3,47.6,40.3z M47.6,33
		c1.4,0,2.6,1.1,2.6,2.6c0,1.4-1.1,2.6-2.6,2.6s-2.6-1.1-2.6-2.6C45.1,34.2,46.2,33,47.6,33z"/>
</g>
</svg>
