<?xml version="1.0" encoding="utf-8"?>
<!-- Generator: Adobe Illustrator 21.0.2, SVG Export Plug-In . SVG Version: 6.00 Build 0)  -->
<svg version="1.1" id="Слой_1" xmlns="http://www.w3.org/2000/svg" xmlns:xlink="http://www.w3.org/1999/xlink" x="0px" y="0px"
	 viewBox="0 0 229 140" style="enable-background:new 0 0 229 140;" xml:space="preserve">
<style type="text/css">
	.st0{fill:#0F0F0F;}
	.st1{enable-background:new    ;}
	.st2{fill:#FFFFFF;}
</style>
<g>
	<path class="st0" d="M211.4,134.9H16.9c-6.6,0-12-5.4-12-12V17.6c0-6.6,5.4-12,12-12h194.5c6.6,0,12,5.4,12,12v105.3
		C223.4,129.5,218,134.9,211.4,134.9z"/>
</g>
<g class="st1">
	<path class="st2" d="M93.2,52.7c0-4.1-1.5-7.3-4.4-9.7c-3-2.4-7.1-3.6-12.5-3.6c-4.5,0-8.2,1.2-11.3,3.7c-3,2.5-4.5,5.5-4.5,9.2
		H50.4c0-4.1,1.1-7.7,3.3-10.9c2.2-3.2,5.3-5.7,9.3-7.5c4-1.8,8.4-2.7,13.2-2.7c8.5,0,15.2,1.9,19.9,5.7c4.7,3.8,7.1,9.2,7.1,16
		c0,3.5-1.1,6.8-3.3,9.7c-2.2,2.9-5.2,5.2-9.1,6.9c9,3,13.5,9,13.5,17.9c0,6.9-2.6,12.3-7.7,16.3c-5.1,4-11.9,6-20.5,6
		c-5.1,0-9.7-0.9-13.8-2.7c-4.1-1.8-7.4-4.4-9.7-7.7c-2.3-3.3-3.5-7.3-3.5-11.9h10.1c0,4,1.6,7.3,4.8,10c3.2,2.7,7.2,4,12.1,4
		c5.5,0,9.9-1.3,13.1-3.8c3.3-2.6,4.9-5.9,4.9-10.1c0-9-5.5-13.5-16.6-13.7h-9.4v-8.2h9.4c5.1-0.1,9-1.3,11.6-3.5
		C91.9,59.9,93.2,56.8,93.2,52.7z"/>
</g>
<g class="st1">
	<path class="st2" d="M121,98.9V40.3h-10.6v-9.8h30.2c8.3,0,14.8,0.4,19.3,1.3c4.5,0.9,8.9,2.8,13.1,5.8c4.2,3,7.6,7.2,10.1,12.5
		c2.5,5.3,3.8,11.3,3.8,18.1c0,7.7-1.2,14.4-3.7,20.1c-2.4,5.7-5.6,9.9-9.6,12.7s-8.6,4.8-14.1,5.9c-5.4,1.1-12.4,1.7-20.8,1.7
		h-28.4v-9.8H121z M132.8,98.9h6.2c6.9,0,12.3-0.4,16.4-1.3c4-0.9,7.4-2.3,10.2-4.4c2.8-2.1,5-5.2,6.7-9.4s2.6-9.1,2.6-14.8
		c0-6.8-1.4-12.5-4.2-17.2c-2.8-4.7-6.4-7.8-10.8-9.2c-4.4-1.4-11.2-2.2-20.3-2.2h-6.7V98.9z"/>
</g>
</svg>
