<?xml version="1.0" encoding="utf-8"?>
<!-- Generator: Adobe Illustrator 21.0.2, SVG Export Plug-In . SVG Version: 6.00 Build 0)  -->
<svg version="1.1" id="Слой_1" xmlns="http://www.w3.org/2000/svg" xmlns:xlink="http://www.w3.org/1999/xlink" x="0px" y="0px"
	 viewBox="0 0 9 5.4" style="enable-background:new 0 0 9 5.4;" xml:space="preserve">
<style type="text/css">
	.st0{display:none;}
	.st1{display:inline;opacity:0.28;enable-background:new    ;}
	.st2{fill:none;stroke:#000000;stroke-width:0.25;stroke-miterlimit:10;}
	.st3{fill:none;stroke:#000000;stroke-width:0.25;stroke-linecap:round;stroke-linejoin:round;stroke-miterlimit:10;}
	.st4{fill:none;stroke:#000000;stroke-width:0.25;stroke-linejoin:round;stroke-miterlimit:10;}
</style>
<g id="Слой_1_1_" class="st0">
	<path class="st1" d="M8.8,3.8H8c0-0.1,0-0.1-0.1-0.2L7.6,3l0.2-0.3c0.1-0.1,0.1-0.2,0-0.3c0-0.1-0.1-0.2-0.2-0.2H7c0,0,0,0-0.1,0
		c0,0,0,0-0.1,0H6.2C6.1,2.2,6,2.3,5.9,2.4c0,0.1,0,0.2,0,0.3l0,0H5L4.5,1.3c0-0.1-0.1-0.2-0.3-0.2h0V1c0-0.1-0.1-0.1-0.1-0.1H3.3
		H3.2l-2,1.4l0,0C0.8,1.9,0.5,1.6,0.5,1.6s-0.1-0.1-0.2,0c-0.1,0-0.1,0.1-0.1,0.1v2.1C0.1,3.8,0,3.9,0,4.1v0.4
		c0,0.2,0.1,0.3,0.3,0.3h8.5c0.2,0,0.3-0.1,0.3-0.3V4.1C9.1,3.9,9,3.8,8.8,3.8z M7.8,3.8H7.2L7.1,3.7l0.3-0.4L7.8,3.8z M7,2.5h0.6
		L6.7,3.8H6.1L7,2.5z M6.6,2.5l0.1-0.2L6.3,2.9l0.1-0.1L6.2,2.5H6.6z M6.2,2.9L6.2,2.9L6.3,3L5.9,3.6c0,0-0.1,0.1-0.1,0.2H5.6V3.7
		L5.3,2.9H6.2z M5.3,3.8H4.8L4.4,2.9h0.5L5.3,3.8z M4.5,3.8H3.8c0,0,0,0-0.1,0C3.1,3.6,2.6,3.3,2.1,3l0,0H4L4.5,3.8z M3.9,1.4h0.4
		l0.6,1.4H4.4L3.8,1.5L3.9,1.4z M4,2.7H2.3l1.3-1L4,2.7z M3.4,1.2h0.2l0,0v0.1L2,2.7L1.6,2.4L3.4,1.2z M0.6,2C1,2.4,1.8,3.1,3,3.7
		H0.6V2z M8.8,4.4H0.4V4h8.5v0.4H8.8z"/>
</g>
<g id="Слой_2">
	<path class="st2" d="M8.4,3.9H0.6c-0.2,0-0.3,0.2-0.3,0.4s0.2,0.4,0.3,0.4h7.8c0.2,0,0.3-0.2,0.3-0.4S8.5,3.9,8.4,3.9z"/>
	<polyline class="st3" points="6.3,3.9 7.4,2.4 6.4,2.4 5.3,3.9 	"/>
	<polyline class="st3" points="2.7,3.9 4,2.1 3.7,1.3 1.6,3.9 	"/>
	<line class="st4" x1="1" y1="4.6" x2="1" y2="5.3"/>
	<line class="st4" x1="1.9" y1="4.6" x2="1.9" y2="5.3"/>
	<line class="st4" x1="2.8" y1="4.6" x2="2.8" y2="5.3"/>
	<line class="st4" x1="3.6" y1="4.6" x2="3.6" y2="5.3"/>
	<line class="st4" x1="4.5" y1="4.6" x2="4.5" y2="5.3"/>
	<line class="st4" x1="5.4" y1="4.6" x2="5.4" y2="5.3"/>
	<line class="st4" x1="6.3" y1="4.6" x2="6.3" y2="5.3"/>
	<line class="st4" x1="7.1" y1="4.6" x2="7.1" y2="5.3"/>
	<line class="st4" x1="8" y1="4.6" x2="8" y2="5.3"/>
	<polyline class="st4" points="2.3,3 0.9,2.1 0.9,1.3 2.7,2.4 	"/>
	<line class="st4" x1="1" y1="1.4" x2="1" y2="0.3"/>
	<line class="st4" x1="3.4" y1="1.6" x2="3.4" y2="0.5"/>
	<path class="st4" d="M1,2.2c0,0.3-0.7,1.3,0,1.6"/>
	<path class="st4" d="M7.2,2.8c0.7,0.2,1,0.5,0.8,1"/>
	<path class="st4" d="M7.4,3"/>
	<path class="st4" d="M6.6,2.8"/>
	<path class="st4" d="M3.8,2.2c0.6,0.3,1.4,0.4,2.5,0.4"/>
</g>
</svg>
