<?xml version="1.0" encoding="utf-8"?>
<!-- Generator: Adobe Illustrator 21.0.2, SVG Export Plug-In . SVG Version: 6.00 Build 0)  -->
<svg version="1.1" id="Слой_1" xmlns="http://www.w3.org/2000/svg" xmlns:xlink="http://www.w3.org/1999/xlink" x="0px" y="0px"
	 viewBox="0 0 541.6 129.9" style="enable-background:new 0 0 541.6 129.9;" xml:space="preserve">
<style type="text/css">
	.st0{fill:#FFFFFF;}
	.st1{fill:#D24A43;}
</style>
<g>
	<path class="st0" d="M48,4.3v15.8H35.8v63.2H15.3V20.1H3.1V4.3H48z"/>
	<path class="st0" d="M98.6,4.3v79.1h-18l-10.7-36v35.9H52.7v-79h17.2l11.5,35.6V4.3H98.6z"/>
	<path class="st0" d="M106.9,4.3h20.7c5.6,0,9.9,0.4,12.9,1.3s5.3,2.1,6.8,3.8s2.5,3.7,3.1,6c0.5,2.4,0.8,6,0.8,11v6.9
		c0,5-0.5,8.7-1.6,11c-1,2.3-3,4.1-5.7,5.3c-2.8,1.2-6.4,1.9-10.9,1.9h-5.5v31.8h-20.6L106.9,4.3L106.9,4.3z M127.4,17.8v20.1
		c0.6,0,1.1,0,1.5,0c1.9,0,3.2-0.5,3.9-1.4s1.1-2.9,1.1-5.8v-6.5c0-2.7-0.4-4.5-1.3-5.3C131.9,18.2,130.1,17.8,127.4,17.8z"/>
</g>
<g>
	<path class="st0" d="M222.4,33.8h-20.6v-7.2c0-4.5-0.2-7.4-0.6-8.5c-0.4-1.1-1.3-1.7-2.8-1.7c-1.3,0-2.1,0.5-2.6,1.5
		s-0.7,3.5-0.7,7.5v37.9c0,3.5,0.2,5.9,0.7,7c0.5,1.1,1.4,1.7,2.7,1.7c1.5,0,2.5-0.6,3.1-1.9s0.8-3.7,0.8-7.4v-9.4h-4.2v-12h24.1
		v42.4h-12.9l-1.9-5.7c-1.4,2.4-3.2,4.3-5.3,5.5s-4.6,1.8-7.5,1.8c-3.5,0-6.7-0.8-9.7-2.5s-5.3-3.8-6.9-6.2
		c-1.6-2.5-2.5-5.1-2.9-7.8c-0.4-2.7-0.6-6.8-0.6-12.2V33.2c0-7.6,0.4-13,1.2-16.5c0.8-3.4,3.1-6.6,7-9.4s8.8-4.3,15-4.3
		c6,0,11,1.2,15,3.7s6.6,5.4,7.8,8.8s1.8,8.3,1.8,14.8L222.4,33.8L222.4,33.8z"/>
	<path class="st0" d="M230.4,4.7H245c9.7,0,16.3,0.4,19.7,1.1c3.4,0.7,6.2,2.7,8.4,5.7c2.2,3.1,3.2,8,3.2,14.7
		c0,6.2-0.8,10.3-2.3,12.4s-4.5,3.4-9,3.8c4.1,1,6.8,2.4,8.2,4.1c1.4,1.7,2.3,3.2,2.6,4.7s0.5,5.3,0.5,11.7v20.8h-19.1V57.5
		c0-4.2-0.3-6.9-1-7.9c-0.7-1-2.4-1.5-5.2-1.5v35.6h-20.6L230.4,4.7L230.4,4.7z M251,18.3v17.6c2.3,0,3.9-0.3,4.9-1s1.4-2.7,1.4-6.2
		v-4.3c0-2.5-0.4-4.2-1.3-4.9C255,18.6,253.3,18.3,251,18.3z"/>
	<path class="st0" d="M331.2,51c0,7.9-0.2,13.6-0.6,16.9s-1.5,6.3-3.5,9.1c-2,2.7-4.6,4.8-8,6.3s-7.3,2.2-11.7,2.2
		c-4.2,0-8-0.7-11.4-2.1s-6.1-3.5-8.1-6.2c-2.1-2.8-3.3-5.8-3.7-9c-0.4-3.3-0.6-9-0.6-17.1V37.5c0-7.9,0.2-13.6,0.6-16.9
		s1.5-6.3,3.5-9.1c2-2.7,4.6-4.8,8-6.3S303,3,307.4,3c4.2,0,8,0.7,11.4,2.1s6.1,3.5,8.1,6.2c2.1,2.8,3.3,5.8,3.7,9
		c0.4,3.3,0.6,9,0.6,17.1V51z M310.7,25c0-3.7-0.2-6-0.6-7.1c-0.4-1-1.2-1.5-2.5-1.5c-1.1,0-1.9,0.4-2.5,1.2
		c-0.6,0.8-0.9,3.3-0.9,7.3V62c0,4.6,0.2,7.4,0.6,8.5s1.2,1.6,2.6,1.6s2.3-0.6,2.7-1.9c0.4-1.2,0.6-4.2,0.6-8.8L310.7,25L310.7,25z"
		/>
	<path class="st0" d="M385.6,4.7v52.8c0,6-0.2,10.2-0.6,12.6s-1.5,4.9-3.5,7.5c-1.9,2.6-4.5,4.5-7.6,5.8s-6.8,2-11.1,2
		c-4.7,0-8.9-0.8-12.5-2.3s-6.3-3.6-8.1-6.1c-1.8-2.5-2.8-5.2-3.2-7.9c-0.3-2.8-0.5-8.6-0.5-17.6V4.7h20.6V64c0,3.5,0.2,5.7,0.6,6.6
		c0.4,1,1.1,1.4,2.3,1.4c1.3,0,2.1-0.5,2.5-1.6s0.6-3.6,0.6-7.5V4.7H385.6z"/>
	<path class="st0" d="M393.6,4.7h20.7c5.6,0,9.9,0.4,12.9,1.3s5.3,2.1,6.8,3.8s2.5,3.7,3.1,6c0.5,2.4,0.8,6,0.8,11v6.9
		c0,5-0.5,8.7-1.6,11c-1,2.3-3,4.1-5.7,5.3c-2.8,1.2-6.4,1.9-10.9,1.9h-5.5v31.8h-20.6L393.6,4.7L393.6,4.7z M414.1,18.3v20.1
		c0.6,0,1.1,0,1.5,0c1.9,0,3.2-0.5,3.9-1.4s1.1-2.9,1.1-5.8v-6.5c0-2.7-0.4-4.5-1.3-5.3C418.6,18.7,416.8,18.3,414.1,18.3z"/>
</g>
<g>
	<path class="st0" d="M15.5,122.3h-1.9v-15H5v15H3.1v-16.7h12.4V122.3z"/>
	<path class="st0" d="M33.1,110.5c0,1.7-0.6,3-1.7,3.9c-1.1,0.9-2.8,1.3-5,1.3h-1.9v6.6h-1.9v-16.7h4.4
		C31,105.6,33.1,107.3,33.1,110.5z M24.5,114.1h1.7c1.7,0,3-0.3,3.8-0.8c0.8-0.5,1.1-1.4,1.1-2.6c0-1.1-0.4-1.9-1.1-2.4
		c-0.7-0.5-1.8-0.8-3.4-0.8h-2.1C24.5,107.4,24.5,114.1,24.5,114.1z"/>
	<path class="st0" d="M53.5,114c0,2.6-0.7,4.8-2,6.3s-3.3,2.3-5.6,2.3c-2.4,0-4.4-0.7-5.7-2.2c-1.3-1.5-2-3.7-2-6.4s0.7-4.8,2-6.3
		s3.3-2.2,5.7-2.2c2.4,0,4.3,0.7,5.6,2.2S53.5,111.2,53.5,114z M40.1,114c0,2.2,0.5,4,1.4,5.2c0.9,1.1,2.3,1.7,4.2,1.7
		s3.3-0.6,4.2-1.7c0.9-1.1,1.4-2.8,1.4-5.2c0-2.2-0.5-4-1.4-5.1c-0.9-1.1-2.3-1.7-4.2-1.7s-3.3,0.6-4.2,1.7
		C40.6,110,40.1,111.7,40.1,114z"/>
	<path class="st0" d="M59.5,105.6h1.8v9.3c0,1.7-0.1,3.3-0.2,4.7h0.2l9.4-13.9h2.1v16.7H71v-9.2c0-1.5,0.1-3.2,0.2-4.8h-0.1l-9.4,14
		h-2.1v-16.8H59.5z"/>
	<path class="st0" d="M89.4,109.5c0,1.1-0.3,2-1,2.6c-0.7,0.7-1.6,1.1-2.8,1.3v0.1c1.4,0.2,2.4,0.6,3.2,1.3c0.7,0.7,1.1,1.6,1.1,2.6
		c0,1.5-0.6,2.7-1.7,3.7s-2.8,1.3-5,1.3c-1.9,0-3.6-0.3-4.8-0.9v-1.7c0.7,0.3,1.5,0.6,2.3,0.8c0.8,0.2,1.6,0.3,2.4,0.3
		c1.5,0,2.6-0.3,3.5-0.8c0.8-0.5,1.1-1.4,1.1-2.4c0-1-0.4-1.8-1.3-2.3c-0.8-0.5-2.1-0.8-3.9-0.8H80V113h2.3c1.5,0,2.7-0.3,3.7-0.8
		c0.8-0.5,1.3-1.3,1.3-2.3c0-0.8-0.3-1.4-0.9-1.9c-0.6-0.5-1.4-0.7-2.4-0.7c-0.8,0-1.6,0.1-2.2,0.3c-0.6,0.2-1.4,0.6-2.3,1.1
		l-0.9-1.3c0.8-0.6,1.6-1,2.5-1.3c0.9-0.3,1.9-0.4,3-0.4c1.7,0,3.1,0.4,4.1,1.1C88.9,107.3,89.4,108.3,89.4,109.5z"/>
	<path class="st0" d="M95.6,105.6h4.7c2.2,0,3.9,0.3,4.8,1c1,0.7,1.5,1.7,1.5,3.2c0,1-0.3,1.8-0.8,2.4c-0.5,0.6-1.3,1-2.4,1.2v0.1
		c2.5,0.4,3.8,1.7,3.8,4c0,1.5-0.5,2.6-1.5,3.5c-1,0.8-2.4,1.2-4.3,1.2h-5.8v-16.6H95.6z M97.5,112.8h3.2c1.3,0,2.3-0.2,3-0.6
		c0.6-0.4,0.9-1.1,0.9-2.1c0-0.9-0.3-1.6-1-2c-0.7-0.4-1.7-0.6-3.2-0.6h-2.8V112.8z M97.5,114.4v6.2h3.5c1.3,0,2.3-0.3,3.1-0.8
		c0.7-0.5,1-1.3,1-2.4c0-1-0.3-1.8-1-2.2c-0.7-0.5-1.7-0.7-3.2-0.7H97.5z"/>
	<path class="st0" d="M127.6,114c0,2.6-0.7,4.8-2,6.3c-1.3,1.5-3.3,2.3-5.6,2.3c-2.4,0-4.4-0.7-5.7-2.2c-1.3-1.5-2-3.7-2-6.4
		s0.7-4.8,2-6.3s3.3-2.2,5.7-2.2s4.3,0.7,5.6,2.2C126.9,109.2,127.6,111.2,127.6,114z M114.3,114c0,2.2,0.5,4,1.4,5.2
		c0.9,1.1,2.3,1.7,4.2,1.7c1.8,0,3.3-0.6,4.2-1.7c0.9-1.1,1.4-2.8,1.4-5.2c0-2.2-0.5-4-1.4-5.1c-0.9-1.1-2.3-1.7-4.2-1.7
		s-3.3,0.6-4.3,1.7C114.8,110,114.3,111.7,114.3,114z"/>
	<path class="st0" d="M146.9,126.7H145v-4.4h-11.6v4.4h-1.9v-6.1h1.3c1.2-1.9,2.1-4.4,3.1-7.2c0.8-2.8,1.3-5.4,1.4-7.7h7.5v15h2.1
		v6.1H146.9z M142.8,120.6v-13.2H139c-0.1,1.8-0.6,4.1-1.4,6.6c-0.8,2.5-1.7,4.8-2.7,6.5h7.9V120.6z"/>
	<path class="st0" d="M152.1,105.6h1.8v9.3c0,1.7-0.1,3.3-0.2,4.7h0.1l9.4-13.9h2.1v16.7h-1.8v-9.2c0-1.5,0.1-3.2,0.2-4.8h-0.1
		l-9.4,14h-2.1V105.6z"/>
	<path class="st0" d="M177.3,122.3h-1.9v-15h-5.3v-1.7h12.5v1.7h-5.3V122.3z"/>
	<path class="st0" d="M196.8,122.3h-9.4v-16.7h9.4v1.7h-7.3v5.4h6.9v1.7h-6.9v6.1h7.3V122.3z"/>
	<path class="st0" d="M214.7,122.3h-1.9v-15h-5.4l-0.3,2.7c-0.5,3.7-0.9,6.3-1.2,8c-0.3,1.7-0.8,2.8-1.4,3.6c-0.6,0.7-1.3,1-2.3,1
		c-0.6,0-1.1-0.1-1.5-0.3v-1.6c0.4,0.2,0.8,0.3,1.3,0.3c0.4,0,0.7-0.2,1-0.5c0.3-0.3,0.6-0.9,0.8-1.7s0.5-2.3,0.9-4.7
		c0.3-2.3,0.7-5.1,1.2-8.4h9v16.6H214.7z"/>
	<path class="st0" d="M233.2,117.4c0,1.5-0.5,2.7-1.5,3.6c-1,0.8-2.5,1.3-4.4,1.3h-5.6v-16.7h1.9v7.1h3.4c2,0,3.6,0.4,4.7,1.2
		C232.6,114.8,233.2,115.9,233.2,117.4z M223.6,120.6h3.5c2.7,0,4.2-1,4.2-3.2c0-1-0.3-1.8-1-2.2c-0.7-0.5-1.8-0.7-3.5-0.7h-3.1v6.1
		H223.6z"/>
	<path class="st0" d="M259.9,122.3H258v-15h-8.5v15h-1.9v-16.7H260v16.7H259.9z"/>
	<path class="st0" d="M281.4,114c0,2.6-0.7,4.8-2,6.3c-1.3,1.5-3.3,2.3-5.6,2.3c-2.4,0-4.4-0.7-5.7-2.2c-1.3-1.5-2-3.7-2-6.4
		s0.7-4.8,2-6.3c1.3-1.5,3.3-2.2,5.7-2.2c2.4,0,4.3,0.7,5.6,2.2S281.4,111.2,281.4,114z M268.1,114c0,2.2,0.5,4,1.4,5.2
		c0.9,1.1,2.3,1.7,4.2,1.7s3.3-0.6,4.2-1.7c0.9-1.1,1.4-2.8,1.4-5.2c0-2.2-0.5-4-1.4-5.1c-0.9-1.1-2.3-1.7-4.2-1.7
		c-1.8,0-3.3,0.6-4.3,1.7C268.6,110,268.1,111.7,268.1,114z"/>
	<path class="st0" d="M299.3,122.3h-1.9v-15H292l-0.3,2.7c-0.5,3.7-0.9,6.3-1.2,8c-0.3,1.7-0.8,2.8-1.4,3.6c-0.6,0.7-1.3,1-2.3,1
		c-0.6,0-1.1-0.1-1.5-0.3v-1.6c0.4,0.2,0.8,0.3,1.3,0.3c0.4,0,0.7-0.2,1-0.5c0.3-0.3,0.6-0.9,0.8-1.7c0.2-0.8,0.5-2.3,0.9-4.7
		c0.3-2.3,0.7-5.1,1.2-8.4h9v16.6H299.3z"/>
	<path class="st0" d="M306.2,105.6h1.8v9.3c0,1.7-0.1,3.3-0.2,4.7h0.1l9.4-13.9h2.1v16.7h-1.7v-9.2c0-1.5,0.1-3.2,0.2-4.8h-0.1
		l-9.4,14h-2.1v-16.8H306.2z"/>
	<path class="st0" d="M333.8,122.3l-5.7-14.9H328c0.1,1.2,0.2,2.5,0.2,4.2v10.6h-1.8v-16.6h3l5.3,13.7h0.1l5.4-13.7h3v16.7h-1.9
		v-10.8c0-1.2,0.1-2.5,0.2-4.1h-0.2l-5.7,14.8h-1.6V122.3z"/>
	<path class="st0" d="M359.2,122.3h-9.4v-16.7h9.4v1.7h-7.3v5.4h6.9v1.7h-6.9v6.1h7.3V122.3z"/>
	<path class="st0" d="M375.8,110.5c0,1.7-0.6,3-1.7,3.9s-2.8,1.3-5,1.3h-1.9v6.6h-1.9v-16.7h4.4
		C373.8,105.6,375.8,107.3,375.8,110.5z M367.2,114.1h1.7c1.7,0,3-0.3,3.8-0.8c0.8-0.5,1.1-1.4,1.1-2.6c0-1.1-0.4-1.9-1.1-2.4
		c-0.7-0.5-1.8-0.8-3.4-0.8h-2.1L367.2,114.1L367.2,114.1z"/>
	<path class="st0" d="M394.3,122.3h-1.9v-7.8h-8.8v7.8h-1.9v-16.7h1.9v7.1h8.8v-7.1h1.9V122.3z"/>
	<path class="st0" d="M401.2,122.3v-16.7h1.9v7.1h2.7c2,0,3.5,0.4,4.6,1.2c1,0.8,1.5,1.9,1.5,3.6c0,1.5-0.5,2.7-1.5,3.6
		c-1,0.8-2.4,1.2-4.4,1.2C406.1,122.3,401.2,122.3,401.2,122.3z M403.2,120.7h2.8c1.4,0,2.4-0.3,3.1-0.8s1-1.3,1-2.4
		c0-1-0.3-1.8-1-2.2c-0.7-0.5-1.8-0.7-3.4-0.7h-2.5V120.7z M416.6,122.3h-1.9v-16.7h1.9V122.3z"/>
	<path class="st0" d="M434.7,122.3h-2.2L428,115l-4.6,7.3h-2l5.6-8.8l-5.2-7.9h2.1l4.2,6.6l4.2-6.6h2l-5.2,7.9L434.7,122.3z"/>
	<path class="st0" d="M460.3,122.3h-1.9v-15h-8.5v15h-1.9v-16.7h12.5v16.7H460.3z"/>
	<path class="st0" d="M481.7,114c0,2.6-0.7,4.8-2,6.3c-1.3,1.5-3.3,2.3-5.6,2.3c-2.4,0-4.4-0.7-5.7-2.2c-1.3-1.5-2-3.7-2-6.4
		s0.7-4.8,2-6.3c1.3-1.5,3.3-2.2,5.7-2.2s4.3,0.7,5.6,2.2C481,109.2,481.7,111.2,481.7,114z M468.4,114c0,2.2,0.5,4,1.4,5.2
		c0.9,1.1,2.3,1.7,4.2,1.7c1.8,0,3.3-0.6,4.2-1.7c0.9-1.1,1.4-2.8,1.4-5.2c0-2.2-0.5-4-1.4-5.1c-0.9-1.1-2.3-1.7-4.2-1.7
		c-1.8,0-3.3,0.6-4.3,1.7C468.9,110,468.4,111.7,468.4,114z"/>
	<path class="st0" d="M499.7,122.3h-1.9v-15h-5.4l-0.3,2.7c-0.5,3.7-0.9,6.3-1.2,8c-0.3,1.7-0.8,2.8-1.4,3.6c-0.6,0.7-1.3,1-2.3,1
		c-0.6,0-1.1-0.1-1.5-0.3v-1.6c0.4,0.2,0.8,0.3,1.3,0.3c0.4,0,0.7-0.2,1-0.5c0.3-0.3,0.6-0.9,0.8-1.7s0.5-2.3,0.9-4.7
		c0.3-2.3,0.7-5.1,1.2-8.4h9v16.6H499.7z"/>
	<path class="st0" d="M521.1,114c0,2.6-0.7,4.8-2,6.3c-1.3,1.5-3.3,2.3-5.6,2.3c-2.4,0-4.4-0.7-5.7-2.2c-1.3-1.5-2-3.7-2-6.4
		s0.7-4.8,2-6.3c1.3-1.5,3.3-2.2,5.7-2.2s4.3,0.7,5.6,2.2C520.5,109.2,521.1,111.2,521.1,114z M507.8,114c0,2.2,0.5,4,1.4,5.2
		c0.9,1.1,2.3,1.7,4.2,1.7c1.8,0,3.3-0.6,4.2-1.7c0.9-1.1,1.4-2.8,1.4-5.2c0-2.2-0.5-4-1.4-5.1c-0.9-1.1-2.3-1.7-4.2-1.7
		c-1.8,0-3.3,0.6-4.3,1.7C508.3,110,507.8,111.7,507.8,114z"/>
	<path class="st0" d="M527.2,105.6h4.7c2.2,0,3.9,0.3,4.8,1c1,0.7,1.5,1.7,1.5,3.2c0,1-0.3,1.8-0.8,2.4c-0.5,0.6-1.3,1-2.4,1.2v0.1
		c2.5,0.4,3.8,1.7,3.8,4c0,1.5-0.5,2.6-1.5,3.5c-1,0.8-2.4,1.2-4.3,1.2h-5.8v-16.6H527.2z M529.1,112.8h3.2c1.3,0,2.3-0.2,3-0.6
		s0.9-1.1,0.9-2.1c0-0.9-0.3-1.6-1-2c-0.7-0.4-1.7-0.6-3.2-0.6h-2.8L529.1,112.8L529.1,112.8z M529.1,114.4v6.2h3.5
		c1.3,0,2.3-0.3,3.1-0.8s1-1.3,1-2.4c0-1-0.3-1.8-1-2.2c-0.7-0.5-1.7-0.7-3.2-0.7H529.1z"/>
</g>
<g>
	<rect x="453.6" y="6.8" class="st1" width="85.1" height="69.9"/>
</g>
<g>
	<path class="st0" d="M472.5,53.1v10.5h-9.7V53.1H472.5z"/>
	<path class="st0" d="M488.8,21.4l-0.5,5.5c1.9-4,4.6-6.1,8.1-6.3v14.8c-2.3,0-4.1,0.3-5.2,1s-1.8,1.5-2,2.7s-0.4,3.7-0.4,7.8v16.6
		H476V21.4H488.8z"/>
	<path class="st0" d="M528.6,21.4v42.1h-13l0.2-3.5c-0.9,1.4-2,2.5-3.3,3.2s-2.8,1.1-4.5,1.1c-1.9,0-3.5-0.3-4.8-1s-2.2-1.6-2.8-2.7
		c-0.6-1.1-1-2.3-1.1-3.5s-0.2-3.6-0.2-7.3V21.4h12.8v28.7c0,3.3,0.1,5.2,0.3,5.8s0.7,0.9,1.6,0.9c1,0,1.5-0.3,1.7-1
		s0.3-2.7,0.3-6.1V21.4H528.6z"/>
</g>
</svg>
